<svg width="16" height="16" viewBox="0 0 16 16" fill="none" xmlns="http://www.w3.org/2000/svg">
<path fill-rule="evenodd" clip-rule="evenodd" d="M15 7.27823V11.2725C15 13.7493 15 14.9885 14.4291 15.5292C14.1569 15.7876 13.8131 15.95 13.4468 15.9932C12.6791 16.0836 11.7823 15.2676 9.98956 13.6365C9.19622 12.9157 8.80033 12.5549 8.34222 12.4605C8.1164 12.4131 7.8836 12.4131 7.65778 12.4605C7.19889 12.5549 6.803 12.9157 6.01044 13.6365C4.21767 15.2676 3.32089 16.0836 2.55322 15.9924C2.18632 15.949 1.84233 15.7868 1.57089 15.5292C1 14.9885 1 13.7501 1 11.2725V7.27743C1 3.84791 1 2.13275 2.02511 1.06638C3.05022 0 4.70067 0 8 0C11.2993 0 12.9498 0 13.9749 1.06558C15 2.13115 15 3.84791 15 7.27823ZM5.08333 3.19993C5.08333 3.0408 5.14479 2.88819 5.25419 2.77567C5.36358 2.66315 5.51196 2.59994 5.66667 2.59994H10.3333C10.488 2.59994 10.6364 2.66315 10.7458 2.77567C10.8552 2.88819 10.9167 3.0408 10.9167 3.19993C10.9167 3.35905 10.8552 3.51166 10.7458 3.62418C10.6364 3.7367 10.488 3.79991 10.3333 3.79991H5.66667C5.51196 3.79991 5.36358 3.7367 5.25419 3.62418C5.14479 3.51166 5.08333 3.35905 5.08333 3.19993Z" fill="white"/>
</svg>
